# xmcd
#
# Track frame offsets:
#	150
#	6485
#	28951
#	49105
#	71172
#	90624
#	115693
#	137331
#	157400
#	176776
#
# Disc length: 2442 seconds
# Revision: 1
# Processed by: cddbd v1.5.1PL0 Copyright (c) Steve Scherf et al.
# Submitted via: cdrLabel 7.0
#
DISCID=8d09880a
DTITLE=Amber Houston - Can't Take No More
DYEAR=2004
DGENRE=R&B
TTITLE0=Intro
TTITLE1=Don't Hate featuring Queen
TTITLE2=Thru Wit It
TTITLE3=Can't Take No More
TTITLE4=A Message From Amber
TTITLE5=Rather Be Alone featuring Doramus
TTITLE6=Tempting
TTITLE7=One Wish
TTITLE8=DDE Celebration
TTITLE9=Outro
EXTD=www.memphisrap.com
EXTT0=
EXTT1=
EXTT2=
EXTT3=
EXTT4=
EXTT5=
EXTT6=
EXTT7=
EXTT8=
EXTT9=
PLAYORDER=
